<svg width="16" height="15" viewBox="0 0 16 15" fill="none" xmlns="http://www.w3.org/2000/svg">
<g id="Group 68">
<path id="Vector" d="M14.0696 1.9043L14.0691 1.90376C13.6851 1.52742 13.2325 1.22834 12.7357 1.0228L12.7348 1.02243C12.2194 0.808319 11.6666 0.698727 11.1084 0.700011L11.1068 0.700015C10.3218 0.700013 9.55717 0.914908 8.89331 1.3199L8.89329 1.31991C8.73444 1.4168 8.58406 1.52291 8.44188 1.63823L8.00092 1.9959L7.55996 1.63823C7.41778 1.52291 7.26739 1.4168 7.10855 1.31991L7.10853 1.3199C6.44466 0.914908 5.68004 0.700013 4.895 0.700013C4.32846 0.700013 3.7827 0.808221 3.26702 1.02243L3.26626 1.02274C2.76752 1.22923 2.31874 1.52574 1.93256 1.90397L1.93161 1.9049L1.93161 1.9049C1.54896 2.27825 1.24329 2.72304 1.03192 3.21409L14.0696 1.9043ZM14.0696 1.9043C14.452 2.27835 14.7579 2.72336 14.9701 3.21444M14.0696 1.9043L14.9701 3.21444M14.9701 3.21444C15.1899 3.72539 15.3016 4.26575 15.3 4.82265V4.82463C15.3 5.34553 15.1936 5.90352 14.9702 6.48777L14.9696 6.48935C14.7845 6.97674 14.5097 7.49631 14.1498 8.03359C13.5804 8.88232 12.7848 9.78577 11.7766 10.7166C10.0999 12.2633 8.43901 13.3323 8.38065 13.3697L8.38051 13.3698L7.99999 13.6138L7.61947 13.3698L7.61954 13.3697L7.60844 13.3628L7.60788 13.3625C7.60374 13.3598 7.57684 13.3428 7.52568 13.3091C7.47204 13.2739 7.39608 13.2233 7.30096 13.1586C7.11069 13.029 6.84453 12.8432 6.5275 12.6098C5.89238 12.1422 5.0586 11.4879 4.22349 10.7167L4.22341 10.7166C3.21518 9.78577 2.41957 8.88232 1.85023 8.03359L14.9701 3.21444ZM0.7 4.82463C0.7 4.26628 0.811989 3.72517 1.0319 3.21414L1.02977 6.48772C0.806344 5.90349 0.7 5.34551 0.7 4.82463ZM1.85018 8.03353C1.49118 7.49762 1.2174 6.97745 1.02979 6.48777L1.85018 8.03353Z" stroke="#222222" stroke-width="1.4"/>
</g>
</svg>
