<svg width="20" height="20" viewBox="0 0 20 20" fill="none" xmlns="http://www.w3.org/2000/svg">
<g id="bx:log-out-circle">
<path id="Vector" d="M3 10L6.57143 13V10.75H13V9.25H6.57143V7L3 10Z" fill="#131313"/>
<path id="Vector_2" d="M10.9703 3.00003C10.0468 2.99748 9.13191 3.17743 8.27875 3.52945C7.42558 3.88147 6.65104 4.39857 6 5.0508L7.10433 6.15045C8.1368 5.12234 9.50979 4.55541 10.9703 4.55541C12.4307 4.55541 13.8037 5.12234 14.8362 6.15045C15.8687 7.17856 16.438 8.54573 16.438 10C16.438 11.4543 15.8687 12.8215 14.8362 13.8496C13.8037 14.8777 12.4307 15.4446 10.9703 15.4446C9.50979 15.4446 8.1368 14.8777 7.10433 13.8496L6 14.9492C7.32691 16.2713 9.09196 17 10.9703 17C12.8486 17 14.6136 16.2713 15.9405 14.9492C17.2682 13.6279 18 11.8704 18 10C18 8.12967 17.2682 6.37209 15.9405 5.0508C15.2895 4.39857 14.5149 3.88147 13.6618 3.52945C12.8086 3.17743 11.8938 2.99748 10.9703 3.00003Z" fill="#131313"/>
</g>
</svg>
