<svg width="15" height="15" viewBox="0 0 15 15" fill="none" xmlns="http://www.w3.org/2000/svg">
<path d="M12.0625 5.57812L9.40625 2.95312L10.2813 2.07813C10.5208 1.83854 10.8152 1.71875 11.1644 1.71875C11.5135 1.71875 11.8077 1.83854 12.0469 2.07813L12.9219 2.95312C13.1615 3.19271 13.2865 3.48187 13.2969 3.82062C13.3073 4.15937 13.1927 4.44833 12.9531 4.6875L12.0625 5.57812ZM2.5 13.125C2.32292 13.125 2.17438 13.065 2.05438 12.945C1.93438 12.825 1.87459 12.6767 1.875 12.5V10.7344C1.875 10.651 1.89063 10.5702 1.92188 10.4919C1.95313 10.4135 2 10.3433 2.0625 10.2812L8.5 3.84375L11.1563 6.5L4.71875 12.9375C4.65625 13 4.58604 13.0469 4.50813 13.0781C4.43021 13.1094 4.34938 13.125 4.26563 13.125H2.5Z" fill="#222222"/>
</svg>
