<svg width="26" height="25" viewBox="0 0 26 25" fill="none" xmlns="http://www.w3.org/2000/svg">
<path d="M10.8878 20.9788C4.88622 20.9788 0 16.2714 0 10.4894C0 4.70744 4.88622 0 10.8878 0C16.8893 0 21.7755 4.70744 21.7755 10.4894C21.7755 16.2714 16.8893 20.9788 10.8878 20.9788ZM10.8878 1.53504C5.75724 1.53504 1.59333 5.55683 1.59333 10.4894C1.59333 15.422 5.75724 19.4438 10.8878 19.4438C16.0183 19.4438 20.1822 15.422 20.1822 10.4894C20.1822 5.55683 16.0183 1.53504 10.8878 1.53504Z" fill="white"/>
<path d="M24.2131 24.3309C23.931 24.3309 23.6489 24.2308 23.4262 24.0162L19.1335 19.9523C18.7029 19.5375 18.7029 18.8509 19.1335 18.4361C19.564 18.0213 20.2767 18.0213 20.7072 18.4361L25 22.5C25.4306 22.9148 25.4306 23.6014 25 24.0162C24.7773 24.2308 24.4952 24.3309 24.2131 24.3309Z" fill="white"/>
</svg>
