<svg width="24" height="24" viewBox="0 0 24 24" fill="none" xmlns="http://www.w3.org/2000/svg">
<g id="uil:language">
<path id="Vector" d="M21.0564 11.9984H19.0564C18.7912 11.9984 18.5369 12.1038 18.3493 12.2913C18.1618 12.4789 18.0564 12.7332 18.0564 12.9984C18.0564 13.2636 18.1618 13.518 18.3493 13.7055C18.5369 13.8931 18.7912 13.9984 19.0564 13.9984V15.9984H17.8704C17.9892 15.6782 18.0518 15.3399 18.0554 14.9984C18.0554 14.338 17.8375 13.6961 17.4354 13.1722C17.0334 12.6483 16.4698 12.2717 15.8319 12.1008C15.194 11.9299 14.5176 11.9742 13.9074 12.2269C13.2973 12.4796 12.7876 12.9265 12.4574 13.4984C12.3907 13.6122 12.3472 13.738 12.3293 13.8687C12.3115 13.9994 12.3196 14.1323 12.3533 14.2598C12.387 14.3873 12.4456 14.5068 12.5257 14.6116C12.6058 14.7164 12.7059 14.8042 12.8201 14.8702C12.9343 14.9361 13.0604 14.9788 13.1912 14.9958C13.322 15.0128 13.4548 15.0038 13.5821 14.9692C13.7094 14.9347 13.8286 14.8753 13.9328 14.7945C14.037 14.7137 14.1242 14.6131 14.1894 14.4984C14.2772 14.3464 14.4034 14.2202 14.5554 14.1324C14.7075 14.0446 14.8799 13.9984 15.0554 13.9984C15.3206 13.9984 15.575 14.1038 15.7625 14.2913C15.9501 14.4789 16.0554 14.7332 16.0554 14.9984C16.0554 15.2636 15.9501 15.518 15.7625 15.7055C15.575 15.8931 15.3206 15.9984 15.0554 15.9984C14.7902 15.9984 14.5359 16.1038 14.3483 16.2913C14.1608 16.4789 14.0554 16.7332 14.0554 16.9984C14.0554 17.2636 14.1608 17.518 14.3483 17.7055C14.5359 17.8931 14.7902 17.9984 15.0554 17.9984C15.3206 17.9984 15.575 18.1038 15.7625 18.2913C15.9501 18.4789 16.0554 18.7332 16.0554 18.9984C16.0554 19.2636 15.9501 19.518 15.7625 19.7055C15.575 19.8931 15.3206 19.9984 15.0554 19.9984C14.8799 19.9984 14.7075 19.9522 14.5554 19.8644C14.4034 19.7767 14.2772 19.6504 14.1894 19.4984C14.1242 19.3838 14.037 19.2832 13.9328 19.2024C13.8286 19.1216 13.7094 19.0622 13.5821 19.0276C13.4548 18.9931 13.322 18.984 13.1912 19.001C13.0604 19.018 12.9343 19.0607 12.8201 19.1267C12.7059 19.1926 12.6058 19.2805 12.5257 19.3852C12.4456 19.49 12.387 19.6096 12.3533 19.7371C12.3196 19.8646 12.3115 19.9975 12.3293 20.1281C12.3472 20.2588 12.3907 20.3847 12.4574 20.4984C12.7876 21.0703 13.2973 21.5173 13.9074 21.77C14.5176 22.0227 15.194 22.067 15.8319 21.8961C16.4698 21.7251 17.0334 21.3485 17.4354 20.8246C17.8375 20.3007 18.0554 19.6588 18.0554 18.9984C18.0518 18.6569 17.9892 18.3186 17.8704 17.9984H19.0554V20.9984C19.0554 21.2636 19.1608 21.518 19.3483 21.7055C19.5359 21.8931 19.7902 21.9984 20.0554 21.9984C20.3206 21.9984 20.575 21.8931 20.7625 21.7055C20.9501 21.518 21.0554 21.2636 21.0554 20.9984V13.9984C21.3206 13.9984 21.575 13.8931 21.7625 13.7055C21.9501 13.518 22.0554 13.2636 22.0554 12.9984C22.0554 12.7332 21.9501 12.4789 21.7625 12.2913C21.575 12.1038 21.3216 11.9984 21.0564 11.9984ZM9.08642 11.2414C9.11757 11.3696 9.17377 11.4904 9.25179 11.5968C9.32981 11.7031 9.42811 11.793 9.54102 11.8612C9.65393 11.9295 9.77923 11.9747 9.90969 11.9943C10.0401 12.0139 10.1732 12.0074 10.3012 11.9754C10.4291 11.9433 10.5495 11.8863 10.6553 11.8075C10.7611 11.7287 10.8503 11.6298 10.9177 11.5164C10.9851 11.403 11.0295 11.2773 11.0481 11.1468C11.0668 11.0162 11.0594 10.8832 11.0264 10.7554L9.26942 3.72542C9.14652 3.2316 8.86194 2.7931 8.461 2.47972C8.06006 2.16634 7.5658 1.99609 7.05692 1.99609C6.54804 1.99609 6.05379 2.16634 5.65285 2.47972C5.25191 2.7931 4.96733 3.2316 4.84442 3.72542L3.08642 10.7554C3.05345 10.8832 3.04608 11.0162 3.06474 11.1468C3.08339 11.2773 3.1277 11.403 3.19511 11.5164C3.26253 11.6298 3.35171 11.7287 3.45753 11.8075C3.56335 11.8863 3.68371 11.9433 3.81168 11.9754C3.93965 12.0074 4.0727 12.0139 4.20316 11.9943C4.33362 11.9747 4.45891 11.9295 4.57183 11.8612C4.68474 11.793 4.78304 11.7031 4.86106 11.5968C4.93908 11.4904 4.99528 11.3696 5.02642 11.2414L5.58542 8.99842H8.52542L9.08642 11.2414ZM6.08642 6.99842L6.78342 4.21142C6.80444 4.15603 6.84182 4.10835 6.89058 4.0747C6.93934 4.04105 6.99718 4.02303 7.05642 4.02303C7.11567 4.02303 7.17351 4.04105 7.22227 4.0747C7.27103 4.10835 7.3084 4.15603 7.32942 4.21142L8.02642 6.99842H6.08642ZM14.0564 6.99842H15.0564C15.3216 6.99868 15.5758 7.10413 15.7632 7.2916C15.9507 7.47908 16.0562 7.73328 16.0564 7.99842V8.99842C16.0564 9.26364 16.1618 9.51799 16.3493 9.70553C16.5369 9.89306 16.7912 9.99842 17.0564 9.99842C17.3216 9.99842 17.576 9.89306 17.7635 9.70553C17.9511 9.51799 18.0564 9.26364 18.0564 8.99842V7.99842C18.0556 7.20301 17.7393 6.44041 17.1769 5.87798C16.6144 5.31554 15.8518 4.99921 15.0564 4.99842H14.0564C13.7912 4.99842 13.5369 5.10378 13.3493 5.29131C13.1618 5.47885 13.0564 5.7332 13.0564 5.99842C13.0564 6.26364 13.1618 6.51799 13.3493 6.70553C13.5369 6.89306 13.7912 6.99842 14.0564 6.99842ZM10.0564 15.9984H9.05642C8.79129 15.9982 8.53709 15.8927 8.34961 15.7052C8.16213 15.5178 8.05669 15.2636 8.05642 14.9984V13.9984C8.05642 13.7332 7.95107 13.4789 7.76353 13.2913C7.57599 13.1038 7.32164 12.9984 7.05642 12.9984C6.79121 12.9984 6.53685 13.1038 6.34932 13.2913C6.16178 13.4789 6.05642 13.7332 6.05642 13.9984V14.9984C6.05722 15.7938 6.37354 16.5564 6.93598 17.1189C7.49842 17.6813 8.26102 17.9976 9.05642 17.9984H10.0564C10.3216 17.9984 10.576 17.8931 10.7635 17.7055C10.9511 17.518 11.0564 17.2636 11.0564 16.9984C11.0564 16.7332 10.9511 16.4789 10.7635 16.2913C10.576 16.1038 10.3216 15.9984 10.0564 15.9984Z" fill="#231F20"/>
</g>
</svg>
